<svg xmlns="http://www.w3.org/2000/svg" viewBox="0 0 24 21">
  <path fill="#74c7ec" d="M10.143768-.0000473c-.4729798 0-1.0528425.3264298-1.2894853.7246094L.17744846 15.322219c-.23673621.398199-.23646377 1.048966 0 1.447265L2.4088012 20.52925c.3720169.626399.9819532.627552 1.3555122.002l1.7458531-2.919922c.3736486-.625599.9834954-.624546 1.3555133.002l1.5807831 2.66211c.2364649.398299.8164668.724609 1.2894848.724609H20.053768c.472988 0 1.054882-.32631 1.291427-.724609l2.476043-4.171875c.236445-.3983.238937-1.05022.0039-1.449219l-5.126883-8.6836882c-.235152-.3990596-.814554-.7246093-1.287543-.7246093h-3.200408c-.743935 0-1.05077-.5137157-.679697-1.140625l1.755563-2.9648438c.139301-.2353098.139699-.5247059 0-.7597656-.139798-.2350498-.398556-.3808594-.677756-.3808594Zm2.066282 7.0039062c.245157.0000075.48978.1574685.675814.4707032l4.014103 6.7617189c.369682.627699.06434 1.140625-.679697 1.140625H8.1940039c-.7439354 0-1.0478317-.512172-.6758138-1.138672l4.0160459-6.7636719c.185984-.3132247.430656-.4707106.675814-.4707032Z"/>
</svg>
