<svg xmlns="http://www.w3.org/2000/svg" xml:space="preserve" viewBox="0 0 68.7 82.3">
  <path fill="#74c7ec" d="m58.4 44.6-.1-34.3-24 .1.2 60.9c4.2-2.3 8-4.7 11.4-7.4 8.3-6.6 12.5-13 12.5-19.3zM68.6 3.4l.1 41.1c0 3.1-.6 6.1-1.8 9.1-1.2 3-2.7 5.7-4.4 8-1.8 2.3-3.9 4.6-6.3 6.8s-4.7 4.1-6.8 5.5c-2.1 1.5-4.3 2.9-6.5 4.2-2.2 1.3-3.8 2.2-4.8 2.7-.8.4-1.5.7-2.3 1.1-.4.2-.9.3-1.4.3-.5 0-1-.1-1.4-.3-.8-.3-1.5-.7-2.3-1.1-.9-.5-2.5-1.3-4.8-2.6-2.2-1.3-4.4-2.7-6.5-4.1-2.1-1.5-4.3-3.3-6.8-5.5S8 64.1 6.3 61.8c-1.8-2.3-3.3-5-4.5-8-1.2-3-1.8-6.1-1.8-9.1V3.6c0-.9.3-1.7 1-2.4s1.5-1 2.4-1L65.1 0c.9 0 1.7.3 2.4 1s1.1 1.5 1.1 2.4z"/>
</svg>
