<svg xmlns="http://www.w3.org/2000/svg" fill="none" viewBox="0 0 16 16">
  <path fill="#74c7ec" fill-rule="evenodd" d="M5.76001.96c0-.530193.42981-.96.96-.96C10.2546 0 13.12 2.86538 13.12 6.4c0 .53019-.4298.96-.96.96s-.96-.42981-.96-.96c0-2.47424-2.00575-4.48-4.47999-4.48-.53019 0-.96-.42981-.96-.96zM10.24 15.04c0 .5302-.42982.96-.96001.96-3.53462 0-6.4-2.8654-6.4-6.4 0-.53019.42981-.96.96-.96.53019 0 .96.42981.96.96 0 2.4742 2.00576 4.48 4.48 4.48.53019 0 .96001.4298.96001.96zm-9.28-4.8C.429807 10.24-2e-8 9.81018-4e-8 9.27999-2e-7 5.74537 2.86538 2.87999 6.4 2.87999c.53019 0 .96.42981.96.96 0 .53019-.42981.96-.96.96-2.47424 0-4.48 2.00576-4.48 4.48 0 .53019-.42981.96001-.96.96001Zm14.08-4.47999c.5302 0 .96.42981.96.96C16 10.2546 13.1346 13.12 9.6 13.12c-.53019 0-.96-.4298-.96-.96s.42981-.96.96-.96c2.4742 0 4.48-2.00575 4.48-4.47999 0-.53019.4298-.96.96-.96z" clip-rule="evenodd"/>
</svg>
