<svg xmlns="http://www.w3.org/2000/svg" xml:space="preserve" viewBox="0 0 578.9 500">
  <path fill="#5bbce9" d="M394.7 263.2c16.4 0 29.6-13.3 29.6-29.6S411 204 394.7 204s-29.6 13.3-29.6 29.6 13.3 29.6 29.6 29.6zm0 19.7c-31.7 0-65.8 16.8-65.8 37.6v21.6h131.6v-21.6c0-20.8-34.1-37.6-65.8-37.6zm-210.5-19.7c16.4 0 29.6-13.3 29.6-29.6S200.5 204 184.2 204s-29.6 13.3-29.6 29.6 13.3 29.6 29.6 29.6zm0 19.7c-31.7 0-65.8 16.8-65.8 37.6v21.6H250v-21.6c0-20.8-34.1-37.6-65.8-37.6z"/>
  <path fill="#95ddff" d="M289.5 236.8c21.8 0 39.5-17.7 39.4-39.5 0-21.8-17.7-39.5-39.5-39.4-21.8 0-39.4 17.7-39.4 39.5s17.7 39.4 39.5 39.4zm0 26.4c-44.4 0-92.1 23.6-92.1 52.6v26.3h184.2v-26.3c0-29.1-47.7-52.6-92.1-52.6z"/>
  <path fill="#8dceec" d="M342.1 421.1h118.4v26.3H342.1v-26.3z"/>
  <path fill="#74c7ec" d="M539.5 0h-500C17.7 0 0 17.7 0 39.5v421.1C0 482.3 17.7 500 39.5 500h500c21.8 0 39.5-17.7 39.5-39.5v-421C578.9 17.7 561.3 0 539.5 0zm-13.2 447.4H52.6V52.6h473.7v394.8z"/>
</svg>
