<svg xmlns="http://www.w3.org/2000/svg" xml:space="preserve" viewBox="0 0 171 171">
  <path fill="#74c7ec" d="M85.5 0A85.5 85.5 0 0 0 0 85.5 85.5 85.5 0 0 0 85.5 171 85.5 85.5 0 0 0 171 85.5 85.5 85.5 0 0 0 85.5 0zm35.69922 33.800781c4.89999 0 8.90039 3.998443 8.90039 8.898438 0 4.899995-4.0004 8.90039-8.90039 8.90039-4.8 0-8.69844-3.800004-8.89844-8.5l-18.499999-3.90039-5.701172 26.701172C101.0996 66.40039 112.9004 70.400006 121.40039 76.5 123.60039 74.300002 126.6 73 130 73c6.89999 0 12.5 5.600007 12.5 12.5 0 5.099995-3.09922 9.500002-7.19922 11.5.2 1.199999.29883 2.39922.29883 3.69922 0 19.19998-22.30042 34.70117-49.900391 34.70117-27.599973 0-49.898438-15.50119-49.898438-34.70117 0-1.3.098829-2.598831.298828-3.798829-4.399995-1.999998-7.40039-6.300396-7.40039-11.400391 0-6.899993 5.600007-12.5 12.5-12.5 3.299996 0 6.401564 1.400002 8.601562 3.5 8.599992-6.299994 20.498842-10.19961 33.798828-10.599609l6.300782-29.800782c.199999-.599999.5-1.100391 1-1.40039.499999-.3 1.099219-.398828 1.699218-.298828l20.701171 4.40039c1.4-2.999997 4.39844-5 7.89844-5zM65.900391 85.5C61.000396 85.5 57 89.500396 57 94.400391c0 4.899995 4.000396 8.900389 8.900391 8.900389 4.899995 0 8.90039-4.000394 8.90039-8.900389 0-4.899995-4.000395-8.900391-8.90039-8.900391zm39.199219 0c-4.9 0-8.900391 4.000396-8.900391 8.900391 0 4.899995 4.000391 8.900389 8.900391 8.900389 4.89999 0 8.90039-4.000394 8.90039-8.900389C114 89.500396 109.9996 85.5 105.09961 85.5zm-38.949219 28.42578c-.6 0-1.200391.22383-1.650391.67383-.899999.9-.899999 2.40078 0 3.30078 5.999994 5.99999 17.699613 6.5 21.099609 6.5 3.399997 0 14.999611-.40001 21.099611-6.5.9-.9.90117-2.30078.20117-3.30078-.9-.9-2.40078-.9-3.30078 0-3.899997 3.8-12.000397 5.20117-17.900391 5.20117-5.899994 0-14.098442-1.40117-17.898438-5.20117-.449999-.45-1.050391-.67383-1.65039-.67383z"/>
</svg>
