<svg xmlns="http://www.w3.org/2000/svg" fill="none" viewBox="0 0 40 40">
  <g fill="#74c7ec" clip-path="url(#a)">
    <path d="M25.7113 2.05188c1.7488-.03239 3.4833.31909 5.0815 1.02964-1.1969-.7579-2.4737-1.38144-3.8074-1.85927C23.7071.0236141 20.1736-.30277 16.7312.275075 13.2888.85292 10.0556 2.31518 7.34836 4.51856c-.17037.12592-.62222.54073-.8.68888-.17778.14815-.58518.54815-.74074.74074-.15555.19259-.5037.52593-.74074.74074-.23704.21482-.52592.61481-.68148.80741l-.53333.6963c-.14074.19259-.46667.67408-.6.86667-.13334.19259-.22223.36295-.28149.45184-.05926.08889-.19259.31111-.22962.37037-.03704.05926-.38519.69629-.47408.84449-.08889.1481-.35555.7407-.45925.9481l-.34815.8074c0 .0889-.26667.7408-.31111.8222-.04445.0815-.155565.4741-.214824.6667-.125926.3704-.237031.8-.340735 1.1778-.059259.2296-.177776.8-.229627 1.0296v.1778c-.864116 4.7142-.015593 9.5821 2.392586 13.7259.24445.4.57778.9482.85927 1.3259.1037.1556.28889.4223.4074.5704l.42962.563.6815.8.74074.7407c.14074.126.36295.363.5111.4815l.26667.2296.06667.0519.06667.0518.13332.1112c.17037.1407.3852.2888.56297.4148l.14075.0963.14814.0962c.15556.1037.42963.2741.6.363.17037.0889.22222.1333.30371.1704l.46665.2296c.14815.0741.34075.1556.48149.2148.34815.1408.74076.2667 1.06666.3852.1926.0445.4.1111.5926.163l.5111.1111.5185.0889c.5959.0886 1.1976.1331 1.8.1333 1.4696-.0425 2.9187-.3565 4.2741-.9259 1.431-.612 2.7252-1.5039 3.8065-2.6234 1.0813-1.1194 1.9278-2.4437 2.4898-3.8951l.1259-.326c0-.1111.126-.3999.163-.5037.0667-.2666.163-.5852.2148-.8518 0-.0963.0593-.2445.0741-.3408.0855-.5124.1424-1.0293.1703-1.5481v-.6074c-.3851 0-.7407-.0519-1.1407-.0963-3.0054-.3695-5.7567-1.871-7.6934-4.1987-1.9367-2.3276-2.9128-5.3062-2.7296-8.3286.1832-3.0225 1.5121-5.86127 3.7158-7.93792 2.2037-2.07665 5.1163-3.23483 8.1442-3.2385zM8.99281 32.2148c-.45691-.3829-.88983-.7935-1.2963-1.2296-1.72538-1.8355-3.05193-4.0085-3.8961-6.382-.84416-2.3735-1.18765-4.8961-1.00881-7.4089.17884-2.5128.87613-4.9613 2.04794-7.1913 1.1718-2.23007 2.79274-4.19325 4.76068-5.76593.14815-.12592.38519-.28889.53338-.4.592-.43994 1.2104-.84317 1.8518-1.20742 2.059-1.14702 4.3248-1.874605 6.6667-2.140726l.8666-.074078h1.7408l-.8667.066664-.8592.111106-.8519.140743c-2.5817.472151-5.03 1.500021-7.175 3.012361-2.14505 1.51234-3.93561 3.47299-5.24761 5.74609-1.312 2.27309-2.11408 4.80429-2.35063 7.41819-.23656 2.6139.09806 5.2479.98065 7.7197.71879 1.9952 1.78734 3.8463 3.15555 5.4666l.13334.163.06667.0815.07406.0741c.36792.4234.76125.8242 1.17779 1.1999 1.50158 1.3074 3.34778 2.1549 5.31808 2.4412 1.9703.2864 3.9814-.0005 5.793-.8263-1.8146 1.0146-3.8924 1.4603-5.9635 1.2793-2.0711-.1809-4.0401-.9802-5.65129-2.2942Zm2.49629-3.3925-.1333-.1408-.0741-.0666-.4963-.5037c-1.48815-1.5752-2.64455-3.4333-3.40047-5.4642-.75593-2.0308-1.09596-4.1928-.99992-6.3576.09605-2.1648.62622-4.2883 1.55902-6.2442.9328-1.95585 2.24917-3.70431 3.87097-5.14147.5046-.44289 1.0365-.85359 1.5926-1.22963.3111-.20741.6963-.45925 1.0222-.63703.326-.17777.7408-.3926 1.0667-.56297.1259-.06666.2444-.1037.363-.16296.1185-.05926.4444-.2.5555-.23704 1.2995-.51559 2.6623-.85441 4.0519-1.0074.2074 0 .5778-.05926.7852-.06666h.5926c.5935-.0086 1.187.01614 1.7777.07408-.916.01093-1.8298.09264-2.7333.24443-2.6009.42816-5.0581 1.48452-7.1583 3.07742-2.1001 1.59289-3.77992 3.67419-4.89354 6.06333-1.15899 2.5537-1.62214 5.3684-1.34245 8.1588.27969 2.7904 1.29227 5.4572 2.93499 7.7301.126.1555.3334.4518.4667.6074.2222.2741.5037.6074.7408.8667 1.3225 1.4944 3.1064 2.5043 5.0684 2.8693 1.9619.3651 3.9896.0643 5.7612-.8545-3.3111 2.3333-8.0667 1.6815-10.9778-1.0148zm2.0074-5.3334c.6272.9047 1.3748 1.7197 2.2222 2.4223 1.0413.8424 2.2725 1.4177 3.5867 1.6759s2.6716.1914 3.9541-.1945c-1.0655.4627-2.2197.6852-3.3807.6519-1.1611-.0332-2.3006-.3216-3.3378-.8445-1.0616-.5218-2.0144-1.2408-2.8074-2.1185-1.3641-1.4721-2.3975-3.219-3.031-5.1234-.6334-1.9043-.85226-3.9222-.6418-5.9181.2105-1.9959.8454-3.9237 1.8621-5.65403 1.0167-1.73036 2.3918-3.22325 4.0329-4.37853.1629-.11851.4148-.27406.5926-.38517.3259-.21482.7407-.42223 1.0592-.60742.3185-.18518.5482-.26666.7926-.37037 1.4966-.63555 3.0944-.99927 4.7185-1.07408h1.3778l.5111.04444c.2815 0 .563.07407.8445.11111h-1.5259c-1.291.08178-2.5658.33077-3.7926.74074-2.051.66617-3.9172 1.80398-5.4488 3.32205-1.5316 1.51808-2.6859 3.37414-3.3702 5.41916-.6843 2.045-.8795 4.2219-.5701 6.3561.3095 2.1341 1.115 4.1659 2.352 5.9323z"/>
    <path d="m14.7703 14.2221-.4148-.037v.037c.321 0 .6395.0222.9555.0667z"/>
    <path d="M32.4223 35.4741c.163-.1259.6222-.5407.8-.6889l.7408-.7407.7407-.7408c.1704-.2.5259-.6074.6815-.8074l.5333-.6963c.1408-.1926.4667-.674.6-.8666l.2815-.4519c.0444-.0592.1926-.3111.2296-.3704.0371-.0592.3852-.6888.4667-.8444.0815-.1555.363-.7407.4667-.9481.1037-.2074.2444-.5704.3481-.8074 0-.0815.2667-.7408.3037-.8223.037-.0815.163-.474.2222-.6666.126-.3704.2371-.8.3408-1.1778.0592-.2296.1703-.8.2296-1.0297v-.1703c.8654-4.7142.0169-9.5825-2.3926-13.72593-.2444-.40741-.5778-.94816-.8592-1.33335-.1037-.15555-.2889-.42221-.4075-.57036l-.4296-.55555c-.1481-.17038-.5407-.64445-.6889-.80741-.1481-.16296-.4889-.52593-.7407-.74074-.1333-.12593-.363-.36298-.5037-.4815l-.2667-.22221-.0666-.05925-.0667-.05186-.1408-.11111c-.1629-.14074-.3777-.28888-.5555-.41481l-.1482-.0963-.1407-.0963c-.163-.1037-.4296-.27407-.6-.36295-.1704-.08889-.2222-.13335-.3037-.17038l-.4667-.22963-.4815-.21482c-.3481-.14074-.7407-.26666-1.0666-.38518l-.5926-.15555-.5111-.11852-.5186-.08891c-.5959-.08858-1.1975-.13314-1.7999-.13333-1.4696.04256-2.9187.35648-4.2741.92593-1.431.61196-2.7252 1.50389-3.8065 2.62334-1.0813 1.11944-1.9278 2.44381-2.4898 3.89519l-.1259.33329c-.0371.1037-.126.3926-.163.4963-.0741.2667-.163.5852-.2148.8519 0 .0963-.0593.2444-.0741.3407-.095.519-.1568 1.0435-.1852 1.5704v.6445c1.5681.0179 3.1169.3483 4.5558.9717 1.439.6235 2.7392 1.5275 3.8248 2.6593 1.0855 1.1317 1.9346 2.4685 2.4975 3.9322.563 1.4636.8285 3.0248.7812 4.5923-.0852 1.9748-.6509 3.8989-1.6482 5.6055-.9972 1.7066-2.3958 3.1441-4.0744 4.1878-1.6786 1.0436-3.5865 1.6619-5.5582 1.8012-1.9717.1393-3.9476-.2046-5.75626-1.0019 1.19836.7573 2.47486 1.3831 3.80736 1.8666 3.2865 1.1959 6.8274 1.5168 10.2753.9311 3.4479-.5857 6.6842-2.0577 9.3914-4.2718zM30.7927 7.7556c.46.38466.8978.7952 1.3111 1.22963 3.3059 3.52067 5.0838 8.20677 4.945 13.03427-.1388 4.8275-2.183 9.4038-5.6857 12.7287-.1778.163-.4667.4444-.6593.5926l-.3407.2815-.1778.1481-.0815.0667-.4445.3333c-.5972.4376-1.2205.8384-1.8666 1.2l-.7852.4148c-2.6386 1.3035-5.5635 1.9201-8.5037 1.7926 4.7592-.2539 9.2386-2.3278 12.5111-5.7926 2.9144-3.0983 4.6357-7.1296 4.8582-11.3774.2224-4.2478-1.0685-8.4368-3.6434-11.8226-.1555-.2222-.3629-.4518-.5333-.65924l-.1333-.16296-.0667-.08147-.0667-.0815c-1.4521-1.75958-3.4439-2.9912-5.6669-3.50409-2.223-.5129-4.5531-.27844-6.6294.66707 1.8175-1.02741 3.9028-1.48233 5.983-1.30523 2.0803.1771 4.0586.97797 5.6763 2.29782zm-2.963 2.963c.2371.1851.4741.4074.6963.6074 1.9042 1.8309 3.3296 4.1014 4.1511 6.612.8215 2.5106 1.014 5.1845.5605 7.7869-.4535 2.6024-1.539 5.0536-3.1613 7.1384-1.6223 2.0847-3.7317 3.7393-6.1429 4.8182l-.3703.1556-.0889.037-.0963.037-.1852.0741c-.1926.0667-.5482.2074-.7407.2667-2.0225.6552-4.1592.8822-6.2741.6667 1.0445-.019 2.0853-.1281 3.1111-.326 2.5191-.4906 4.8857-1.5724 6.9049-3.1564 2.0193-1.584 3.6336-3.6249 4.7099-5.9547 1.1797-2.6056 1.6337-5.4814 1.3143-8.3237-.3194-2.8424-1.4005-5.5457-3.1291-7.8244-.1333-.1852-.3334-.4148-.4741-.5926-.1407-.1778-.437-.4889-.637-.7408-1.3361-1.4347-3.106-2.39147-5.0382-2.72332-1.9322-.33184-3.9199-.02047-5.6581.88632 3.1333-2.22222 7.6296-1.77777 10.5555.5852Zm-7.9259 26.5259.6148-.2593.6-.2889c.2296-.1111.5037-.274.7407-.4l.7038-.437c.2-.1407.4814-.3333.674-.4815 2.762-2.0738 4.6422-5.1113 5.2667-8.5082.6245-3.397-.0525-6.9046-1.8963-9.8251l-.363-.5482-.3925-.5259-.4149-.5185c-.4189-.5029-.8852-.9643-1.3926-1.3778-1.0401-.8389-2.2688-1.4121-3.58-1.6702-1.3111-.2581-2.6654-.1933-3.9459.1887 1.2928-.5578 2.7088-.7686 4.108-.6114 1.3991.1572 2.733.6769 3.8698 1.5077.768.5515 1.4625 1.1987 2.0667 1.926 1.4966 1.76 2.5349 3.8626 3.0225 6.1209.4876 2.2583.4093 4.602-.2278 6.8228-.6371 2.2207-1.8133 4.2494-3.4239 5.9057-1.6107 1.6563-3.6058 2.8887-5.8079 3.5876-1.9918.6151-4.1.7547-6.1555.4074 2.0264.0751 4.047-.26 5.9407-.9852z"/>
  </g>
  <defs>
    <clipPath id="a">
      <path fill="#fff" d="M0 0h102.711v40H0z"/>
    </clipPath>
  </defs>
</svg>
