<svg xmlns="http://www.w3.org/2000/svg" xml:space="preserve" viewBox="0 0 226.73334 226.73334">
  <path fill="#74c7ec" d="M179.41599551 100.69586648C143.42399641 79.32133368 84.05573123 77.3560004 49.6969321 87.78400014c-5.5177332 1.67466663-11.35266638-1.4413333-13.02399967-6.95733316-1.67239996-5.5213332 1.43906663-11.35199972 6.96093316-13.029333 39.44159901-11.9719997 105.00746404-9.65999977 146.44212967 14.93599962 4.96266654 2.9466666 6.5906665 9.35599977 3.64933324 14.31039964-2.94399993 4.96253321-9.35866643 6.59839984-14.30933298 3.65213324zm-1.17866663 31.65879921c-2.52533327 4.09746657-7.88266647 5.38279987-11.97466637 2.8666666-30.00666592-18.44479954-75.76213144-23.7879994-111.26213055-13.01199968-4.60359989 1.39119997-9.4661331-1.20466663-10.86453306-5.79946652-1.38706664-4.60359988 1.20986663-9.45719976 5.80519985-10.85719973 40.55359899-12.30599969 90.96813106-6.34533317 125.4321302 14.83373297 4.0919999 2.52039993 5.37999986 7.88026646 2.86399993 11.96826636zm-13.66266633 30.40413258c-2.00666661 3.29066658-6.2906665 4.32146655-9.5693331 2.31573327-26.22039934-16.02506626-59.22306518-19.64386617-98.08973087-10.7666664-3.74533324.85879998-7.47813315-1.4881333-8.33226646-5.2333332-.85786665-3.74386657 1.48026663-7.47719981 5.23386653-8.33186646 42.53279894-9.72333309 79.01773136-5.5385332 108.44813063 12.44533303 3.28133325 2.00413328 4.31466656 6.2906665 2.30933327 9.57079976zM113.36719717 1.70933563c-61.6661318 0-111.65782388 49.99066541-111.65782388 111.65573054 0 61.67239846 49.99169208 111.65889054 111.65782388 111.65889054 61.66746512 0 111.6567972-49.98649208 111.6567972-111.65889054 0-61.66506513-49.98933208-111.65573054-111.6567972-111.65573054"/>
</svg>
