<svg xmlns="http://www.w3.org/2000/svg" xml:space="preserve" viewBox="0 0 234.66667 165.33333">
  <path fill="#74c7ec" d="M93.333331 117.55826453v-69.7833316l61.3333318 34.89333247zm136.42932992-91.74093104c-2.6986666-10.16266641-10.6506664-18.16533288-20.74666615-20.88133281C190.71599523 8e-7 117.3333304 8e-7 117.3333304 8e-7s-73.38226483 0-91.6827977 4.93599988C15.55413293 7.6520006 7.6020798 15.65466708 4.90363987 25.81733348 0 44.2363997 0 82.6666654 0 82.6666654s0 38.42973237 4.90363988 56.84946525c2.69843993 10.16253307 10.65049306 18.16511954 20.74689281 20.88230614C43.95106557 165.33333 117.3333304 165.33333 117.3333304 165.33333s73.38266483 0 91.68266437-4.93489321c10.09599975-2.7171866 18.04799955-10.71977307 20.74666615-20.88230614 4.90399988-18.41973288 4.90399988-56.84946525 4.90399988-56.84946525s0-38.4302657-4.90399988-56.84933191"/>
</svg>
